<svg width="32" height="32" viewBox="0 0 32 32" fill="none" xmlns="http://www.w3.org/2000/svg">
    <path
        d="M9.33334 4C8.2785 4 7.24736 4.31279 6.37029 4.89883C5.49323 5.48486 4.80965 6.31782 4.40598 7.29236C4.00231 8.26689 3.89669 9.33925 4.10248 10.3738C4.30827 11.4084 4.81622 12.3587 5.5621 13.1046C6.30798 13.8505 7.25829 14.3584 8.29285 14.5642C9.32742 14.77 10.3998 14.6644 11.3743 14.2607C12.3489 13.857 13.1818 13.1734 13.7678 12.2964C14.3539 11.4193 14.6667 10.3882 14.6667 9.33333C14.6667 7.91885 14.1048 6.56229 13.1046 5.5621C12.1044 4.5619 10.7478 4 9.33334 4ZM22.6667 28C23.7215 28 24.7526 27.6872 25.6297 27.1012C26.5068 26.5151 27.1904 25.6822 27.594 24.7076C27.9977 23.7331 28.1033 22.6608 27.8975 21.6262C27.6917 20.5916 27.1838 19.6413 26.4379 18.8954C25.692 18.1496 24.7417 17.6416 23.7072 17.4358C22.6726 17.23 21.6002 17.3356 20.6257 17.7393C19.6512 18.143 18.8182 18.8266 18.2322 19.7036C17.6461 20.5807 17.3333 21.6118 17.3333 22.6667C17.3333 24.0812 17.8952 25.4377 18.8954 26.4379C19.8956 27.4381 21.2522 28 22.6667 28Z"
        fill="white" />
    <path
        d="M19.4268 5.90668C20.9772 6.42841 22.3869 7.29976 23.5468 8.45334C24.7759 9.68475 25.6905 11.1939 26.2134 12.8533"
        stroke="white" stroke-opacity="0.2" stroke-width="1.5" stroke-linecap="round"
        stroke-linejoin="round" />
    <path d="M23.8 11.7467L26.2134 12.8667L27.3334 10.4533" stroke="white" stroke-opacity="0.2"
        stroke-width="1.5" stroke-linecap="round" stroke-linejoin="round" />
    <path
        d="M5.80005 19.1467C6.32295 20.8061 7.2376 22.3153 8.46672 23.5467C9.6266 24.7003 11.0363 25.5716 12.5867 26.0933"
        stroke="white" stroke-opacity="0.2" stroke-width="1.5" stroke-linecap="round"
        stroke-linejoin="round" />
    <path d="M8.20008 20.2533L5.78675 19.1333L4.66675 21.5467" stroke="white" stroke-opacity="0.2"
        stroke-width="1.5" stroke-linecap="round" stroke-linejoin="round" />
    <path
        d="M9.33334 4C8.2785 4 7.24736 4.31279 6.37029 4.89883C5.49323 5.48486 4.80965 6.31782 4.40598 7.29236C4.00231 8.26689 3.89669 9.33925 4.10248 10.3738C4.30827 11.4084 4.81622 12.3587 5.5621 13.1046C6.30798 13.8505 7.25829 14.3584 8.29285 14.5642C9.32742 14.77 10.3998 14.6644 11.3743 14.2607C12.3489 13.857 13.1818 13.1734 13.7678 12.2964C14.3539 11.4193 14.6667 10.3882 14.6667 9.33333C14.6667 7.91885 14.1048 6.56229 13.1046 5.5621C12.1044 4.5619 10.7478 4 9.33334 4ZM22.6667 28C23.7215 28 24.7526 27.6872 25.6297 27.1012C26.5068 26.5151 27.1904 25.6822 27.594 24.7076C27.9977 23.7331 28.1033 22.6608 27.8975 21.6262C27.6917 20.5916 27.1838 19.6413 26.4379 18.8954C25.692 18.1496 24.7417 17.6416 23.7072 17.4358C22.6726 17.23 21.6002 17.3356 20.6257 17.7393C19.6512 18.143 18.8182 18.8266 18.2322 19.7036C17.6461 20.5807 17.3333 21.6118 17.3333 22.6667C17.3333 24.0812 17.8952 25.4377 18.8954 26.4379C19.8956 27.4381 21.2522 28 22.6667 28Z"
        stroke="white" stroke-width="1.5" stroke-linecap="round" stroke-linejoin="round" />
</svg>