<svg width="32" height="32" viewBox="0 0 32 32" fill="none" xmlns="http://www.w3.org/2000/svg">
    <path
        d="M21.3333 17.3333H26.6667V13.3333C26.6667 12.9797 26.5262 12.6406 26.2761 12.3905C26.0261 12.1405 25.687 12 25.3333 12H5.33333C4.97971 12 4.64057 12.1405 4.39052 12.3905C4.14048 12.6406 4 12.9797 4 13.3333V26.6667C4 27.0203 4.14048 27.3594 4.39052 27.6095C4.64057 27.8595 4.97971 28 5.33333 28H25.3333C25.687 28 26.0261 27.8595 26.2761 27.6095C26.5262 27.3594 26.6667 27.0203 26.6667 26.6667V22.6667H21.3333C20.9797 22.6667 20.6406 22.5262 20.3905 22.2761C20.1405 22.0261 20 21.687 20 21.3333V18.6667C20 18.313 20.1405 17.9739 20.3905 17.7239C20.6406 17.4738 20.9797 17.3333 21.3333 17.3333Z"
        fill="white" fill-opacity="0.2" />
    <path
        d="M26.6667 22.6667V26.6667C26.6667 27.0203 26.5262 27.3594 26.2761 27.6095C26.0261 27.8595 25.687 28 25.3333 28H5.33333C4.97971 28 4.64057 27.8595 4.39052 27.6095C4.14048 27.3594 4 27.0203 4 26.6667V13.3333C4 12.9797 4.14048 12.6406 4.39052 12.3905C4.64057 12.1405 4.97971 12 5.33333 12H25.3333C25.687 12 26.0261 12.1405 26.2761 12.3905C26.5262 12.6406 26.6667 12.9797 26.6667 13.3333V17.3333"
        stroke="white" stroke-width="1.5" stroke-linecap="round" stroke-linejoin="round" />
    <path d="M22.9466 12L25.3333 8.58667L18.7866 4L15.9864 7.99073L15.9999 8L13.1733 12H22.9466Z"
        fill="white" />
    <path d="M12.1199 5.33333L7.43994 12H13.1733L15.9864 7.99073L12.1199 5.33333Z" fill="white" />
    <path
        d="M27.9999 22.6667H21.3333C20.9797 22.6667 20.6405 22.5262 20.3905 22.2761C20.1404 22.0261 19.9999 21.687 19.9999 21.3333V18.6667C19.9999 18.313 20.1404 17.9739 20.3905 17.7239C20.6405 17.4738 20.9797 17.3333 21.3333 17.3333H27.9999V22.6667Z"
        fill="white" />
    <path
        d="M13.1733 12H22.9466L25.3333 8.58667L18.7866 4L15.9864 7.99073M13.1733 12H7.43994L12.1199 5.33333L15.9864 7.99073M13.1733 12L15.9999 8L15.9864 7.99073M13.1733 12L15.9864 7.99073M27.9999 22.6667H21.3333C20.9797 22.6667 20.6405 22.5262 20.3905 22.2761C20.1404 22.0261 19.9999 21.687 19.9999 21.3333V18.6667C19.9999 18.313 20.1404 17.9739 20.3905 17.7239C20.6405 17.4738 20.9797 17.3333 21.3333 17.3333H27.9999V22.6667Z"
        stroke="white" stroke-width="1.5" stroke-linecap="round" stroke-linejoin="round" />
</svg>