<svg width="32" height="32" viewBox="0 0 32 32" fill="none" xmlns="http://www.w3.org/2000/svg">
    <path opacity="0.2"
        d="M9.00008 20L12.0001 23C12.0001 23 11.0001 27 5.00008 27C5.00008 21 9.00008 20 9.00008 20ZM17.0001 9H9.29383C9.02896 9.00012 8.77497 9.10532 8.58758 9.2925L4.29383 13.5863C4.16273 13.7176 4.07079 13.8829 4.02828 14.0636C3.98578 14.2442 3.9944 14.4332 4.05317 14.6092C4.11194 14.7853 4.21854 14.9415 4.36105 15.0604C4.50356 15.1793 4.67635 15.2562 4.86008 15.2825L10.0001 16L17.0001 9ZM16.0001 22L16.7176 27.14C16.7439 27.3237 16.8208 27.4965 16.9397 27.639C17.0586 27.7815 17.2148 27.8881 17.3908 27.9469C17.5669 28.0057 17.7558 28.0143 17.9365 27.9718C18.1172 27.9293 18.2824 27.8373 18.4138 27.7062L22.7076 23.4125C22.8948 23.2251 23 22.9711 23.0001 22.7062V15L16.0001 22Z"
        fill="white" />
    <path
        d="M12.9712 23.2425C12.9225 23.4362 11.7037 28 4.99999 28C4.73477 28 4.48042 27.8946 4.29288 27.7071C4.10534 27.5196 3.99999 27.2652 3.99999 27C3.99999 20.2962 8.56374 19.0775 8.75749 19.0287C9.01491 18.9644 9.28734 19.005 9.51485 19.1416C9.74235 19.2781 9.9063 19.4994 9.97061 19.7569C10.0349 20.0143 9.99435 20.2867 9.8578 20.5142C9.72125 20.7417 9.49991 20.9057 9.24249 20.97C9.12999 21.0012 6.43999 21.7875 6.04749 25.9525C10.2125 25.56 11 22.875 11.0325 22.75C11.0988 22.4929 11.2645 22.2727 11.4932 22.1378C11.7219 22.0028 11.9948 21.9643 12.2519 22.0306C12.509 22.0969 12.7292 22.2626 12.8641 22.4913C12.999 22.72 13.0375 22.9929 12.9712 23.25V23.2425ZM24.5962 14.8175L24 15.4137V22.705C24.0015 22.9686 23.9505 23.23 23.8501 23.4737C23.7497 23.7175 23.6018 23.9389 23.415 24.125L19.125 28.4125C18.94 28.5988 18.7199 28.7467 18.4775 28.8475C18.2351 28.9483 17.9751 29.0002 17.7125 29C17.4958 28.9999 17.2805 28.9649 17.075 28.8962C16.7221 28.7795 16.4089 28.5664 16.1708 28.281C15.9327 27.9956 15.7791 27.6493 15.7275 27.2812L15.0562 22.47L9.52999 16.9437L4.72124 16.2725C4.35267 16.2208 4.00583 16.0673 3.71974 15.8292C3.43366 15.5912 3.21968 15.278 3.10187 14.925C2.98406 14.5719 2.96709 14.193 3.05288 13.8308C3.13868 13.4687 3.32382 13.1377 3.58749 12.875L7.87499 8.58499C8.06108 8.39822 8.28246 8.25032 8.52624 8.14989C8.77002 8.04946 9.03133 7.9985 9.29499 7.99999H16.5862L17.1825 7.40374C20.5175 4.06999 24.5362 3.92624 26.1087 4.01999C26.5963 4.04962 27.0562 4.25668 27.4016 4.60209C27.747 4.94751 27.9541 5.4074 27.9837 5.89499C28.075 7.46374 27.9312 11.4825 24.5975 14.8175H24.5962ZM4.99999 14.2925L9.64374 14.94L14.5862 9.99999H9.29499L4.99999 14.2925ZM11.415 16L16 20.585L23.1812 13.4037C24.149 12.4425 24.8998 11.2852 25.3832 10.0097C25.8666 8.73417 26.0714 7.36996 25.9837 6.00874C24.6232 5.92429 23.2603 6.13116 21.9862 6.61552C20.712 7.09989 19.5558 7.85059 18.595 8.81749L11.415 16ZM22 17.4137L17.0587 22.355L17.7087 27L22 22.705V17.4137Z"
        fill="white" />
    <path
        d="M11.415 16L16 20.585L23.1812 13.4037C24.149 12.4425 24.8998 11.2852 25.3832 10.0097C25.8666 8.73417 26.0714 7.36996 25.9837 6.00874C24.6232 5.92429 23.2603 6.13116 21.9862 6.61552C20.712 7.09989 19.5558 7.85059 18.595 8.81749L11.415 16Z"
        fill="white" />
</svg>