<svg width="32" height="32" viewBox="0 0 32 32" fill="none" xmlns="http://www.w3.org/2000/svg">
    <path
        d="M18.6667 4H14.6667L14 6.66667H10L9.33333 4H5.33333C4.97971 4 4.64057 4.14048 4.39052 4.39052C4.14048 4.64057 4 4.97971 4 5.33333V26.6667C4 27.0203 4.14048 27.3594 4.39052 27.6095C4.64057 27.8595 4.97971 28 5.33333 28H18.6667C19.0203 28 19.3594 27.8595 19.6095 27.6095C19.8595 27.3594 20 27.0203 20 26.6667V5.33333C20 4.97971 19.8595 4.64057 19.6095 4.39052C19.3594 4.14048 19.0203 4 18.6667 4Z"
        fill="white" />
    <path
        d="M20 22.6667H26.6667C27.0203 22.6667 27.3594 22.5262 27.6095 22.2761C27.8595 22.0261 28 21.687 28 21.3333V14.6667H20V22.6667Z"
        fill="white" fill-opacity="0.2" />
    <path fill-rule="evenodd" clip-rule="evenodd"
        d="M28 14.6667H20V9.33333H26.6667C27.0203 9.33333 27.3594 9.47381 27.6095 9.72386C27.8595 9.97391 28 10.313 28 10.6667V14.6667ZM14.6667 4H9.33333L10 6.66667H14L14.6667 4Z"
        fill="white" fill-opacity="0.2" />
    <path
        d="M20 22.6667V14.6667V9.33333V5.33333C20 4.97971 19.8595 4.64057 19.6095 4.39052C19.3594 4.14048 19.0203 4 18.6667 4H14.6667L14 6.66667H10L9.33333 4H5.33333C4.97971 4 4.64057 4.14048 4.39052 4.39052C4.14048 4.64057 4 4.97971 4 5.33333V26.6667C4 27.0203 4.14048 27.3594 4.39052 27.6095C4.64057 27.8595 4.97971 28 5.33333 28H18.6667C19.0203 28 19.3594 27.8595 19.6095 27.6095C19.8595 27.3594 20 27.0203 20 26.6667V22.6667Z"
        fill="white" fill-opacity="0.2" />
    <path
        d="M20 22.6667H26.6667C27.0203 22.6667 27.3594 22.5262 27.6095 22.2761C27.8595 22.0261 28 21.687 28 21.3333M20 22.6667V9.33333M20 22.6667V26.6667M20 22.6667V14.6667M20 9.33333H26.6667C27.0203 9.33333 27.3594 9.47381 27.6095 9.72386C27.8595 9.97391 28 10.313 28 10.6667M20 9.33333V5.33333M20 9.33333V14.6667M28 10.6667V21.3333M28 10.6667V14.6667M28 21.3333V14.6667M20 14.6667H28M20 26.6667V5.33333M20 26.6667C20 27.0203 19.8595 27.3594 19.6095 27.6095C19.3594 27.8595 19.0203 28 18.6667 28H5.33333C4.97971 28 4.64057 27.8595 4.39052 27.6095C4.14048 27.3594 4 27.0203 4 26.6667V5.33333C4 4.97971 4.14048 4.64057 4.39052 4.39052C4.64057 4.14048 4.97971 4 5.33333 4M20 5.33333C20 4.97971 19.8595 4.64057 19.6095 4.39052C19.3594 4.14048 19.0203 4 18.6667 4M18.6667 4H5.33333M18.6667 4H14.6667M5.33333 4H9.33333M14.6667 4H9.33333M14.6667 4L14 6.66667H10L9.33333 4"
        stroke="white" stroke-width="1.5" stroke-linecap="round" stroke-linejoin="round" />
</svg>